<svg width="107" height="20" viewBox="0 0 107 20" fill="none" xmlns="http://www.w3.org/2000/svg">
<path d="M8.9837 0.64664L9.11387 0.775623L9.14289 5.72408H14.0974C14.1737 5.72408 14.2317 5.90515 14.2392 5.97873C14.3196 6.77826 14.1728 7.70842 14.2392 8.522C14.264 8.57988 14.1223 8.7378 14.0974 8.7378H9.14289V13.6366C9.14289 13.7491 8.98453 13.807 8.8867 13.8169C8.07422 13.8996 7.12411 13.7499 6.29587 13.8169C6.21711 13.845 6.07864 13.6846 6.07864 13.6366V8.7378H1.16394C1.14819 8.7378 1.03875 8.5898 0.984863 8.57905V5.84314L1.03791 5.84148C1.06859 5.80758 1.11337 5.72408 1.16394 5.72408H6.07864L6.1085 0.775623L6.23783 0.64664H8.9837Z" fill="#456A92"/>
<path d="M25.6456 18.8621L25.5851 17.5392C24.9418 18.6612 23.4146 19.3226 21.5849 19.3226C17.8872 19.3226 15.5352 15.8955 15.5352 12.1873C15.5352 8.25827 17.7861 5.11143 22.108 5.11143C25.2833 5.11143 27.7357 6.99574 27.9363 9.66137H25.1225C24.9815 8.41868 23.6351 7.41658 22.108 7.41658C19.877 7.41658 18.3896 9.14048 18.3896 12.3072C18.3896 14.4924 19.4948 16.9778 22.0873 16.9778C23.917 16.9778 25.3439 15.5945 25.3439 13.931H22.3891V11.7061H27.9562V18.8621H25.6456Z" fill="#E5F4FE"/>
<path d="M35.4129 18.8621V17.4789C34.7297 18.6017 33.7042 19.1226 32.3379 19.1226C30.368 19.1226 28.981 17.6591 28.981 15.4945V8.99994H31.5942V15.0935C31.5942 16.3362 32.1571 16.9373 33.2623 16.9373C34.5888 16.9373 35.2927 15.9956 35.2927 14.6925V8.99994H37.8851V18.8621H35.4129Z" fill="#E5F4FE"/>
<path d="M39.0903 18.8622V9.00001H41.7035V18.8622H39.0903ZM39.0903 7.81767V5.39181H41.7035V7.81767H39.0903Z" fill="#E5F4FE"/>
<path d="M49.7828 14.1716C49.7828 12.0269 49.0391 10.9644 47.5924 10.9644C46.0644 10.9644 45.3415 11.9864 45.3415 14.0112C45.3415 15.7748 46.2659 16.9977 47.5725 16.9977C48.8186 16.9977 49.7828 15.8352 49.7828 14.1716ZM49.743 18.8621L49.7231 17.6591C49.0997 18.6612 48.1753 19.1226 46.969 19.1226C44.4768 19.1226 42.6885 17.1581 42.6885 13.831C42.6885 10.8437 44.1957 8.7395 46.7484 8.7395C47.9738 8.7395 48.9388 9.24053 49.6825 10.2831V5.39174H52.2551V18.8621H49.743Z" fill="#E5F4FE"/>
<path d="M59.9134 12.9686C59.8727 11.5052 58.9077 10.804 57.883 10.804C56.8375 10.804 55.9736 11.606 55.8733 12.9686H59.9134ZM55.7929 14.6123C55.8733 16.0956 56.7173 17.058 58.0032 17.058C58.848 17.058 59.5917 16.6372 59.7724 15.9551H62.4652C61.8625 17.9799 60.2342 19.1226 58.1242 19.1226C54.8279 19.1226 53.1797 17.3185 53.1797 13.7508C53.1797 10.704 54.9282 8.7395 57.9634 8.7395C60.9986 8.7395 62.6062 10.704 62.6062 14.6123H55.7929Z" fill="#E5F4FE"/>
<path d="M70.0552 16.6521C72.4869 16.6521 73.5324 15.1292 73.5324 12.1221C73.5324 9.11578 72.4869 7.91277 69.814 7.91277H67.7438V16.6521H70.0552ZM65.0303 18.9176V5.60762H70.1962C73.8134 5.60762 76.3868 8.07317 76.3868 12.1221C76.3868 16.1709 74.0754 18.9176 70.6182 18.9176H65.0303Z" fill="#E5F4FE"/>
<path d="M84.5462 13.9863C84.5462 11.9821 83.742 10.9999 82.1544 10.9999C80.5667 10.9999 79.7625 11.9821 79.7625 13.9863C79.7625 15.9905 80.5667 16.9926 82.1544 16.9926C83.742 16.9926 84.5462 15.9905 84.5462 13.9863ZM77.0688 13.9863C77.0688 10.8593 79.0188 8.79478 82.1544 8.79478C85.2493 8.79478 87.1793 10.8395 87.1793 13.9863C87.1793 17.1133 85.2294 19.1779 82.1544 19.1779C78.9583 19.1779 77.0688 17.053 77.0688 13.9863Z" fill="#E5F4FE"/>
<path d="M94.0735 12.0417C93.9326 11.0801 93.4103 10.7394 92.2239 10.7394C91.239 10.7394 90.676 10.9792 90.676 11.5613C90.676 12.1425 91.219 12.3831 92.2844 12.6833C93.4103 13.0041 94.4748 13.2248 95.2392 13.525C96.2838 13.9458 96.8667 14.6279 96.8667 15.9103C96.8667 17.955 95.3594 19.1779 92.5456 19.1779C89.5103 19.1779 87.8224 17.7549 87.7817 15.7499H90.4754C90.4754 16.6726 91.2597 17.2134 92.5257 17.2134C93.4501 17.2134 94.2742 16.9331 94.2742 16.1914C94.2742 15.4895 93.5305 15.2695 92.6865 15.0686C91.0184 14.6676 90.0932 14.3873 89.3901 13.9458C88.4657 13.3646 88.144 12.6031 88.144 11.7209C88.144 10.0573 89.2898 8.79478 92.3043 8.79478C95.1588 8.79478 96.4447 9.91759 96.5856 12.0417H94.0735Z" fill="#E5F4FE"/>
<path d="M104.122 13.0239C104.082 11.5613 103.117 10.8593 102.092 10.8593C101.047 10.8593 100.183 11.6613 100.082 13.0239H104.122ZM100.002 14.6676C100.082 16.1509 100.926 17.1133 102.212 17.1133C103.057 17.1133 103.801 16.6925 103.981 16.0112H106.674C106.071 18.0352 104.444 19.1779 102.333 19.1779C99.0368 19.1779 97.3887 17.3738 97.3887 13.8061C97.3887 10.7593 99.1372 8.79478 102.172 8.79478C105.208 8.79478 106.815 10.7593 106.815 14.6676H100.002Z" fill="#E5F4FE"/>
</svg>
